<!-- Generated by IcoMoon.io -->
<svg version="1.1" xmlns="http://www.w3.org/2000/svg" width="1024" height="1024" viewBox="0 0 1024 1024">
<title></title>
<g id="icomoon-ignore">
</g>
<path d="M0 443.080c0-244.276 198.625-443.080 443.169-443.080 244.307 0 443.167 198.566 443.167 443.080 0 96.321-30.886 185.579-83.245 258.34l199.955 199.91c27.84 27.84 27.936 73.267 0.288 101.222-14.291 14.662-33.152 21.446-51.046 21.446-18.758 0-37.165-7.571-50.752-21.152l-199.968-199.923c-72.778 52.352-162.057 83.238-258.399 83.238-244.322 0-443.169-198.79-443.169-443.083zM442.961 143.821c-164.945 0-299.336 134.202-299.336 299.26 0 165.092 134.425 299.467 299.336 299.467 165.084 0 299.336-134.548 299.336-299.467 0-164.884-134.218-299.26-299.336-299.26z"></path>
</svg>
